<?xml version="1.0" encoding="utf-8"?>
<!-- Generator: Adobe Illustrator 24.3.0, SVG Export Plug-In . SVG Version: 6.00 Build 0)  -->
<svg version="1.1" id="Layer_1" xmlns="http://www.w3.org/2000/svg" xmlns:xlink="http://www.w3.org/1999/xlink" x="0px" y="0px"
	 viewBox="0 0 720 720" style="enable-background:new 0 0 720 720;" xml:space="preserve">
<style type="text/css">
	.st0{fill:#030303;}
	.st1{fill:#E16C4B;}
	.st2{fill:#F0DBA6;}
	.st3{fill:#306571;}
	.st4{fill:#F4D368;}
	.st5{fill:#55818A;}
	.st6{fill:#C2B186;}
	.st7{fill:#27525B;}
	.st8{fill:#BFAE85;}
</style>
<g>
	<path class="st0" d="M198.22,606.48c-7.95-9.51-15.64-18.86-23.51-28.05c-4.4-5.14-8.78-10.19-9.3-17.36
		c-0.79-10.88,0.05-21.4,6.43-30.8c4-5.9,8.83-10.94,14.94-14.63c1.37-0.83,1.39-1.57,1.13-2.82c-2.64-12.81-3.04-25.72-1.57-38.7
		c0.12-1.04,0.45-1.92-0.75-2.79c-13.44-9.86-23.07-22.97-31.29-37.21c-1.47-2.55-2.54-2.71-4.8-1.18c-2.79,1.89-5.44,3.91-7.8,6.31
		c-12.98,13.18-26.23,26.12-38.82,39.66c-7.95,8.55-17.8,11.36-28.7,12.2c-4.64,0.35-9.28,0.09-13.81-1.28
		c-7.75-2.34-12.35-8.08-15.9-14.83c-10.2-19.39-10.59-39.4-4.07-60.02c6.45-20.41,17.68-38.12,30-55.3
		c4.09-5.7,8.45-11.24,11.53-17.61c0.66-1.37,1.23-2.68,0.45-4.28c-5.85-11.97-6.18-24.81-5.79-37.74
		c0.46-15.2,3.8-29.74,10.16-43.56c11.74-25.5,31.28-42.86,56.71-53.88c15.49-6.71,31.8-9.98,48.61-11.59
		c19.33-1.86,38.41-1.38,57.34,2.96c3.47,0.8,6.93,1.72,10.28,2.91c2.04,0.72,2.56,0.35,2.78-1.75c1.08-10.53,2.36-21.04,3.45-31.57
		c0.32-3.1,1.07-5.76,4.34-6.88c3.2-1.09,5.56,0.33,7.82,2.48c10.74,10.21,21.54,20.36,32.33,30.52c0.54,0.51,1.11,0.98,2.01,1.77
		c2.33-9.14,4.59-17.96,6.83-26.79c4.6-18.12,9.22-36.23,13.78-54.36c0.82-3.26,2.07-5.96,5.89-6.33c3.47-0.34,5.58,1.23,7.42,5.45
		c6.95,15.94,13.9,31.88,20.86,47.82c0.51,1.18,1.06,2.34,1.74,3.85c5.54-8.97,10.93-17.69,16.31-26.41
		c11.97-19.4,23.96-38.8,35.9-58.22c1.36-2.21,2.76-3.92,5.8-3.8c4.75,0.19,5.99,0.97,7.04,5.77c3.32,15.09,6.6,30.2,9.91,45.29
		c1.91,8.75,3.83,17.49,5.83,26.61c2.28-1.48,4.25-2.75,6.21-4.04c17.86-11.79,35.72-23.57,53.56-35.4c2.9-1.92,5.75-3.61,9.22-1.49
		c3.42,2.09,2.84,5.33,2.6,8.63c-1.25,16.83-2.37,33.66-3.54,50.5c-0.51,7.33-1.01,14.66-1.55,22.53c4-2.18,7.57-4.11,11.13-6.07
		c7-3.86,14.01-7.71,20.98-11.61c2.94-1.64,5.93-2.36,8.75-0.07c2.76,2.24,2.43,5.25,1.54,8.32c-4.19,14.53-8.34,29.07-12.5,43.62
		c-0.17,0.6-0.29,1.22-0.55,2.36c7.52-2.75,14.66-5.36,21.79-7.98c24.74-9.08,49.47-18.16,74.22-27.23
		c6.02-2.21,10.85,0.95,10.01,6.47c-0.22,1.44-1.03,2.59-1.78,3.78c-7.94,12.62-15.88,25.25-23.81,37.87
		c-0.51,0.81-1.01,1.62-1.73,2.8c7.84,0.83,15.31,1.64,22.79,2.42c4.63,0.49,9.25,1.03,13.88,1.38c2.8,0.21,5.11,1.07,6.25,3.77
		c1.18,2.77,0.34,5.24-1.46,7.52c-8.26,10.43-16.49,20.87-24.73,31.32c-0.79,1-1.53,2.03-2.55,3.38c12.22-1.12,24-2.26,35.79-3.24
		c5.2-0.43,8.2,2.56,7.55,7.14c-0.26,1.82-1.3,3.15-2.62,4.33c-22.84,20.38-45.68,40.76-68.52,61.15c-1.69,1.51-3.38,3.03-5.4,4.84
		c6.38,2.83,12.53,5.6,18.71,8.28c18.03,7.83,36.08,15.62,54.12,23.42c0.59,0.26,1.21,0.48,1.79,0.76c2.78,1.35,4.42,3.46,4.12,6.67
		c-0.3,3.25-2.39,4.87-5.4,5.58c-9.99,2.35-19.98,4.72-29.98,7.07c-27.04,6.35-54.07,12.7-81.11,19.05c-0.17,0.04-0.31,0.22-1,0.74
		c5.16,5.02,10.27,9.93,15.32,14.93c12.38,12.26,24.72,24.55,37.08,36.82c1.23,1.22,2.49,2.41,2.89,4.21
		c0.97,4.35-1.65,7.58-6.56,7.98c-11.32,0.92-22.64,1.79-33.96,2.69c-21.99,1.74-43.99,3.53-65.99,5.19
		c-2.64,0.2-2.09,1.14-1.28,2.73c5.76,11.25,11.48,22.52,17.21,33.78c0.54,1.06,1.12,2.1,1.6,3.19c1.25,2.78,1.31,5.57-0.91,7.83
		c-2.11,2.15-4.83,2.3-7.52,1.14c-5.26-2.26-10.47-4.63-15.71-6.94c-26.78-11.82-53.56-23.64-80.34-35.46
		c-3.32-1.47-3.18-1.47-3.42,2.09c-2.5,35.66-14.88,66.85-43.13,89.91c-13.57,11.07-29.71,15.38-47.18,10.23
		c-6.14-1.81-11.22-5.97-16.14-10.02c-2.12-1.75-4.23-2.54-7.02-2.48c-12.58,0.25-25.07-0.65-37.26-3.98
		c-2.35-0.64-2.42,0.62-2.97,2.06c-6.17,16.04-16.25,28.85-31.83,36.5c-14.6,7.18-29.98,8.51-45.71,3.85
		c-3.41-1.01-6.87-1.83-9.85-4c-8.85-6.47-9.24-19.54-0.62-26.31c2.2-1.73,4.61-3.22,7.06-4.58
		C192.72,608.9,195.33,607.84,198.22,606.48z"/>
	<path class="st1" d="M360.64,300.43c-3.78-16.13-12.99-29.28-23.13-41.89c-9.04-11.23-19.28-21.33-29.69-31.28
		c-6.18-5.91-12.18-11.95-19.35-16.71c-5.88-3.9-12.06-7.2-18.53-9.96c-1.35-0.58-2.07-1.09-1.87-2.79
		c1.38-11.76,2.64-23.53,4.02-35.99c14.65,13.8,28.9,27.24,43.6,41.09c7.97-31.28,15.81-62.08,23.89-93.81
		c9.63,22.03,18.92,43.27,28.42,65.01c19.92-32.29,39.54-64.08,59.37-96.21c1.38,2.89,1.62,5.73,2.22,8.46
		c5.21,23.61,10.43,47.22,15.49,70.86c0.61,2.86,1.28,2.64,3.35,1.27c21.36-14.16,42.77-28.23,64.18-42.3
		c0.85-0.56,1.56-1.51,3.05-1.37c-2.02,28.85-4.04,57.65-6.09,86.88c14.69-8.09,29.03-15.99,44.01-24.24
		c-5.81,20.22-11.42,39.77-17.24,60.03c36.74-13.48,72.86-26.73,109.83-40.29c-10.91,17.36-21.38,34.01-32.09,51.06
		c16.11,1.67,31.79,3.29,48.07,4.97c-12.49,15.8-24.66,31.19-37.33,47.22c17.45-1.65,34.2-3.24,51.74-4.9
		c-4.05,3.65-7.6,6.88-11.17,10.07c-22.93,20.43-45.88,40.85-68.82,61.28c-2.61,2.32-2.61,2.35,0.59,3.73
		c25.98,11.24,51.97,22.46,77.95,33.72c0.93,0.4,2.13,0.45,2.79,1.75c-41.01,9.64-81.92,19.26-122.97,28.91
		c20.38,20.74,40.54,41.26,60.81,61.89c-37.28,2.98-74.55,5.96-112.3,8.98c8.19,16.13,16.24,31.96,24.69,48.6
		c-7.32-3.22-13.88-6.1-20.43-8.99c-26.69-11.78-53.36-23.59-80.08-35.3c-2.29-1-3.08-2.28-3.32-4.78
		c-1.4-14.21-5.69-27.66-11.24-40.75c-4.4-10.37-9.97-20.12-15.79-29.74c1.12-1.15,2.43-0.55,3.68-0.38
		c11.78,1.63,23.62,2.74,35.38,4.53c0.71,0.11,1.5,0.35,2.37-0.35c-3.03-4.05-6.44-7.78-9.51-11.77c-1.25-1.63-2.58-3.21-3.7-4.93
		c-0.75-1.15-1.92-2.36-1.12-3.82c0.72-1.33,2.27-1.02,3.54-1.05c2.6-0.06,5.19-0.02,7.79-0.02c10.39,0,20.77,0.08,31.16-0.05
		c3.14-0.04,6.19,0.96,9.2,0.61c0.3-0.26,0.4-0.52,0.23-0.66c-5.28-4.48-9.8-9.77-15.04-14.28c-3.95-3.4-7.46-7.22-11.17-10.85
		c-0.82-0.81-2.02-1.7-1.51-2.99c0.47-1.2,1.88-1.36,3.06-1.51c6.86-0.9,13.72-1.79,20.58-2.73c10.66-1.46,21.34-2.8,32.52-4.29
		c-5.9-3.91-11.29-7.66-16.85-11.14c-6.24-3.91-12.24-8.16-18.5-12.03c-1.08-0.67-2.44-1.38-2.27-2.9c0.18-1.52,1.7-1.83,2.88-2.3
		c15.07-6.03,30.13-12.08,45.2-18.1c0.85-0.34,1.77-0.55,2.56-1.09c-20.7-2.8-41.36-5.54-62.03-8.29c-1.62-0.22-3.99,0.17-4.53-1.72
		c-0.46-1.59,1.5-2.71,2.62-3.84c10.08-10.11,20.17-20.2,30.67-30.69c-6.44,0.38-12.37,0.89-18.3,1.61
		c-7.83,0.95-15.71,1.32-23.55,2.29c-4.18,0.52-5.02-0.78-3.76-4.88c2.9-9.47,5.58-19.01,8.86-28.97
		c-5.82,5.36-11.28,10.24-16.74,15.13c-8.7,7.79-17.34,15.64-26.07,23.39c-2.15,1.91-3.33,1.53-4.06-1.31
		c-4.16-16.24-8.42-32.45-12.38-48.74c-1.05-4.31-2.44-8.53-3.41-13.11c-4.8,13.31-9.53,26.43-14.13,39.61
		c-2.99,8.58-6.14,17.1-9.21,25.66C361.49,299.49,361.3,300.12,360.64,300.43z"/>
	<path class="st2" d="M316.88,382.92c-12,10.06-24.01,20.11-36,30.18c-4.54,3.82-9.04,7.7-13.4,11.82
		c7.68-3.49,15.71-6.37,22.37-11.67c10.65-8.48,21.03-17.3,31.56-25.93c9.41-7.71,26.52-4.94,33.11,5.25
		c4.33,6.71,2.65,13.52,0.32,20.24c-1.75,5.04-4.69,9.46-8.41,13.33c-8.3,8.66-16.38,17.55-24.95,25.93
		c-5.59,5.46-8.1,12.52-11.65,19.11c9.48-8.66,18.85-17.4,27.66-26.69c1.33-0.36,2.28,0.48,3.26,1.1
		c10.27,6.45,19.84,13.83,28.93,21.88c10.56,9.35,20.13,19.57,28.58,30.86c6.38,8.53,11.52,17.76,15.94,27.43
		c1.28,3.54,3.42,6.88,2.59,10.92c-4.86,21.08-12.8,40.65-27.52,57.01c-9.1,10.12-19.53,17.89-33.21,20.48
		c-1.58,0.3-3.2,0.4-4.8,0.59c-5.95,0.75-11.79-0.45-16.28-4.04c-17.41-13.89-32.37-29.91-40.76-51.05
		c-1.25-3.15-2.9-6.35-1.58-9.95c4.32-6.64,12.64-9.6,20.4-7.26c4.81,1.45,9,4.07,13.07,6.95c9.27,6.55,16.29,15.35,23.83,23.63
		c0.61,0.67,0.92,1.76,2.34,1.88c-1.43-7.32-4.23-13.94-9.22-19.34c-6.18-6.68-13.5-12.03-21.26-16.78
		c-5.69-5.61-9.25-12.24-9.77-20.33c0.19-0.84,0.26-1.72,0.58-2.51c4.09-10.04,16.56-22.25,31.25-21.26
		c4.55,0.31,9.06,0.83,13.31,2.55c3.58,1.45,3.61-2,4.57-3.47c1.03-1.58-1.24-1.86-2.25-2.18c-21.95-6.95-37.45-1.46-49.71,16.39
		c-5.92,8.63-5.92,17.96-1.01,27.38c-0.49,0.87-1.46,0.37-2.23,0.41c-17.13,0.82-26.41,15.53-19.71,31.3c0.21,0.49,0.4,1,0.6,1.49
		c3.15,8.15,5.75,16.53,11.06,23.69c1.76,2.37,1.26,3.28-1.73,3.87c-7.92,1.57-15.84,1.63-23.74-0.23
		c-13.98-3.58-26.38-10.3-37.11-19.79c-15.5-13.71-28.19-30.15-36.34-48.85c-16.37-37.54-9.83-75.69,24.6-102.18
		c2.99-2.3,6.05-4.49,9.21-6.83c-0.98-0.76-2.08-0.38-3.06-0.38c-17.41-0.06-34.83-0.3-52.23-0.04
		c-15.19,0.23-28.66,5.68-39.61,16.1c-12.14,11.55-23.62,23.79-35.4,35.71c-1.21,1.23-2.5,2.38-3.75,3.56
		c-5.72,3.83-11.95,6.44-18.7,7.83c-14.42,2.97-25.99-3.03-31.63-16.63c-0.82-1.98-3.08-3.89-1.3-6.47c0.94-0.2,1.69,0.28,2.41,0.75
		c5.57,3.67,11.3,2.91,17.06,0.58c6.6-2.66,12.29-6.79,17.78-11.2c5.65-4.54,11.14-9.27,16.48-14.16c3.67-3.36,6.34-7.65,9.36-11.59
		c13.83-18.01,28-35.77,40.65-54.67c7.61-11.37,13.72-23.44,19.15-36c8.96-20.7,22.5-37.88,42.17-49.6
		c15.65-9.32,32.62-12.47,50.26-8.03c17.51,4.41,33.62,12.18,46.31,25.48c11.07,11.6,17.25,25.4,17.33,41.78
		c0.04,7.83-0.95,15.26-4.36,22.36c-2.22,4.62-3.23,9.63-4.03,14.66C318.02,379.94,317.53,381.44,316.88,382.92z"/>
	<path class="st3" d="M316.88,382.92c0.5-7.06,2.03-13.92,4.95-20.35c5.83-12.85,5.22-25.86,1.18-38.89
		c-3.66-11.77-10.63-21.48-20.26-29.12c-13.24-10.5-28.07-18.02-44.82-20.69c-22.22-3.54-41.29,3.97-57.94,18.39
		c-13.33,11.54-23.19,25.73-29.65,42c-6.04,15.23-14.57,28.91-23.89,42.19c-13.6,19.39-27.81,38.39-43.12,56.4
		c-8.49,9.99-19.24,18.32-30.95,24.87c-2.06,1.15-4.26,2.12-6.48,2.95c-6.41,2.38-12.5,2.11-17.93-2.56
		c-2.77-0.63-3.18-3.45-4.78-5.17c-1.89-9.79-1.24-19.45,1.14-29.09c4.82-19.52,14.45-36.67,25.76-53.02
		c5.16-7.46,10.39-14.88,15.58-22.31c3.37-1.81,7.02-0.91,10.49-0.81c5.89,0.16,11.73,1.08,15.95,2.62c-2.89-0.72-7-2.4-11.12-4.07
		c-3.12-1.26-6.06-2.86-8.93-4.61c-1.43-0.87-2.61-1.91-3.14-3.56c-4.89-10.94-6.94-22.42-6.55-34.38
		c0.96-29.19,10.32-54.84,31.98-75.15c14.61-13.7,32.1-22.15,51.4-27.01c18.99-4.78,38.32-6.26,57.85-5.49
		c0.51,0.02,1.01,0.29,1.51,0.44c30.9,8.12,57.67,23.86,81.73,44.52c15.36,13.19,27.87,28.63,36.11,47.26
		c4.89,11.05,7.68,22.59,8.41,34.75c0.85,14.03-1.32,27.51-5.35,40.83c-0.62,2.05-2.11,3.78-2.14,6.03c-0.75,2.3-2.46,4-3.68,6.01
		c-0.92,1.52-2.4,1.22-3.76,1.14C329.2,376.61,322.67,378.5,316.88,382.92z"/>
	<path class="st4" d="M360.64,300.43c1.56-6.86,4.47-13.28,6.75-19.89c5.46-15.81,11.18-31.53,16.8-47.28
		c0.21-0.59,0.5-1.16,0.96-2.21c1.43,5.24,2.79,9.95,4,14.69c4.07,15.97,8.08,31.95,12.11,47.92c0.18,0.73,0.38,1.46,0.48,2.2
		c0.25,1.83,0.89,1.93,2.22,0.71c6.62-6.04,13.29-12.02,19.96-18.01c8.18-7.35,16.36-14.7,25.04-21.75
		c-1.6,5.29-3.19,10.57-4.79,15.86c-1.6,5.26-3.05,10.58-4.86,15.77c-0.98,2.83,0.08,3.15,2.45,2.92
		c7.29-0.71,14.59-1.31,21.88-2.02c7.49-0.74,14.97-1.56,22.91-2.4c-12.02,11.94-23.75,23.58-35.48,35.23
		c0.16,0.29,0.32,0.58,0.48,0.86c22.83,3.05,45.65,6.1,68.48,9.15c0.03,0.21,0.05,0.42,0.08,0.63c-7.08,2.84-14.15,5.68-21.24,8.51
		c-9.82,3.93-19.65,7.83-29.46,11.77c-0.67,0.27-1.64,0.63-1.8,1.15c-0.32,1.07,0.92,1.29,1.58,1.72
		c11.92,7.82,23.87,15.6,35.8,23.41c0.51,0.33,1.28,0.41,1.43,1.59c-19.21,2.55-38.41,5.1-58.55,7.78
		c10.68,10.2,20.7,19.75,30.98,29.56c-3.49,0.61-6.44-0.22-9.4-0.24c-13.95-0.1-27.9-0.09-41.86-0.08c-0.93,0-2.2-0.44-2.72,0.47
		c-0.62,1.09,0.5,1.97,1.13,2.78c4.08,5.17,8.19,10.3,12.3,15.44c0.73,0.91,1.76,1.62,2.09,3.63c-14.52-1.83-28.82-3.63-43.12-5.43
		c-7.31-10.98-15.01-21.67-23.84-31.5c-2.31-2.57-4.61-5.16-7.05-7.61c-3.04-3.06-6.31-5.86-8.89-9.39
		c-2.47-3.37-6.06-5.51-9.86-7.17c-1.05-0.46-1.74-0.69-0.9-2C361.92,353.52,363.79,327.43,360.64,300.43z"/>
	<path class="st2" d="M258.2,616.53c-9.28,14.19-22.28,22.48-39.12,24.76c-9.48,1.28-18.68,0.38-27.68-2.99
		c-4.5-1.69-7.71-4.44-8.41-9.33c-0.66-4.69,1.64-8.09,5.45-10.58c6.19-4.05,12.78-7.16,20.3-8.47c-0.69-2.05-2.5-3.17-3.78-4.7
		c-9.71-11.59-19.49-23.12-29.16-34.74c-6.63-7.96-5.47-17.22-3.55-26.24c1.89-8.87,7.29-15.74,14.45-21.22
		c1.88-0.03,2.12,1.63,2.63,2.79c6.89,15.75,15.95,30.17,27.14,43.15c11.06,12.83,23.45,24.16,38.9,31.68
		c1.07,0.52,2.14,1.04,3.16,1.65c1.76,1.05,2.46,2.49,2.18,4.61C260.28,610.23,259.59,613.46,258.2,616.53z"/>
	<path class="st3" d="M413.42,525.69c-6.99-15.12-16.16-28.78-27.4-41.05c-14.32-15.63-30.43-29.09-48.53-40.14
		c3.97-4.24,7.85-8.57,11.92-12.7c7.82-7.93,13.11-17,13.43-28.44c0.02-0.75,0.08-0.74,1.23-1.03c0.13,3.24,2.53,5.19,4.39,7.35
		c18.82,21.86,32.72,46.43,40.59,74.24c3.07,10.82,5.13,21.88,5.18,33.22c0.01,1.75,0.56,3.43,0.55,5.15
		C414.79,523.54,415.43,525.19,413.42,525.69z"/>
	<path class="st5" d="M343.89,369.89c-0.65-2.55,0.84-4.72,1.5-6.95c2.84-9.53,4.65-19.13,5.17-29.12
		c0.83-15.93-2.11-30.99-8.49-45.49c-7.6-17.29-19.21-31.66-32.95-44.33c-11.44-10.54-24.08-19.54-37.66-27.16
		c-13.86-7.77-28.09-14.71-43.46-19.04c-1-0.28-2.15-0.35-2.88-1.29c25.75,2.09,49.85,8.97,69.38,26.69
		c18.09,16.4,35.71,33.39,49.11,54.1c5.07,7.83,9.84,16,11.02,25.37C357.58,326.05,355.89,348.83,343.89,369.89z"/>
	<path class="st2" d="M161.96,434.92c-0.8-1.25-1.5-2.57-2.42-3.72c-1.59-1.98-1.17-3.09,1.27-3.56
		c13.58-3.52,27.36-3.28,41.18-2.06c1.39,0.12,3.12,0.17,3.62,1.64c0.47,1.36-0.97,2.27-1.83,3.21
		c-5.86,6.38-11.61,12.84-15.42,20.75c-0.8,1.66-1.52,3.35-2.13,5.09c-1.55,4.43-2.55,4.67-6.08,1.31
		c-6.69-6.38-12.02-13.85-17.16-21.47C162.7,435.67,162.51,435.14,161.96,434.92z"/>
	<path class="st5" d="M413.42,525.69c1.07-1.1,0.63-2.48,0.55-3.7c-0.79-12.22-2.02-24.4-5.21-36.27
		c-2.55-9.48-5.94-18.68-10.03-27.6c-7.55-16.44-17.28-31.52-28.72-45.51c-1.7-2.08-3.52-4.07-5.35-6.05
		c-1.22-1.32-1.91-2.62-0.58-4.24c12.74,13.51,23.71,28.34,33,44.42c9.75,16.88,17.24,34.62,20.47,53.96
		c2.01,12.02,2.24,24.04-0.77,35.97C416.67,532.7,414.41,529.39,413.42,525.69z"/>
	<path class="st6" d="M258.2,616.53c0.53-3.17,0.88-6.38,1.65-9.48c0.57-2.29-0.23-3.46-2.16-4.35
		c-14.54-6.69-26.57-16.7-37.44-28.27c-9.42-10.02-17.22-21.2-24.01-33.12c-2.88-5.06-5.6-10.21-7.83-15.6
		c-0.4-0.97-0.7-2.07-1.71-2.68c3.11-2.49,3.11-2.49,4.46,1.13c1.63,4.36,3.49,8.63,6.03,12.53c11.32,17.38,22.33,35.03,39.23,47.86
		c8.32,6.32,17.3,11.44,27.16,14.87c2.63,0.92,2.75,1.99,1.77,4.14C263.31,608.07,261.49,612.7,258.2,616.53z"/>
	<path class="st6" d="M161.96,434.92c3.66,2.94,5.71,7.16,8.5,10.79c3.37,4.39,7.19,8.31,11.16,12.11c1.65,1.58,2.58,2.34,3.57-1.03
		c2.35-7.95,7.05-14.71,12.56-20.88c2.5-2.8,5-5.59,7.69-8.59c-3.63-1.42-7.33-1.34-10.85-1.46c-10.11-0.34-20.25-0.47-30.23,1.74
		c-1.13,0.25-2.36,0.05-3.55,0.06c5.31-2.64,11.03-3.78,16.85-3.88c12.1-0.2,24.2-0.05,36.3-0.04c0.39,0,0.79,0.05,1.92,0.12
		c-13,11.81-22.98,24.96-27.75,42.04C177.13,457.04,168.69,446.71,161.96,434.92z"/>
	<path class="st6" d="M292.64,549.72c0.04,4.77,1.95,9.02,3.78,13.26c4.35,10.1,10.76,18.83,17.96,27.08
		c5.4,6.2,11.35,11.8,17.4,17.32c5.54,5.05,12.28,6.79,19.48,7.38c-6.83,1.08-13.22-0.02-19.19-3.66
		c-7.07-4.31-13.2-9.62-18.41-16.08c-7.67-9.5-14.96-19.27-20.84-29.99C290.12,560.1,289.37,554.86,292.64,549.72z"/>
	<path class="st6" d="M43.2,452.94c2.37,1.01,2.91,3.7,4.78,5.17c0.19,4.81,2.74,8.68,5.42,12.31c7.51,10.18,17.53,12.89,31.04,8.82
		c3.94-1.18,7.68-2.78,11.32-4.69c1.12-0.59,2.18-1.45,3.58-1.34c-5.27,7.67-13.26,10.23-21.88,11.48c-3.19,0.47-6.4,0.56-9.67,0.33
		c-8.14-0.57-13.52-4.92-17.29-11.8C47,466.83,44.57,460.08,43.2,452.94z"/>
	<path class="st6" d="M273.03,595.9c2.72-0.51,5.35,0.46,8.03,0.55c5.41,0.18,10.74-0.54,16.08-1.23c2.21-0.29,1.99-0.78,0.85-2.27
		c-4.97-6.53-8.06-13.98-10.23-21.83c-0.23-0.82-0.23-1.7-0.33-2.55c7,10.97,14.23,21.77,23.05,32.25
		C297.38,600.6,285,599.87,273.03,595.9z"/>
	<path class="st7" d="M88.94,338.09c7.44,6.48,16.74,9.1,25.74,12.33c0.38,0.14,0.88,0.05,1.12,1.27c-10.05-2.4-20-3.79-30.12-3.17
		C87.16,345.17,89.22,342,88.94,338.09z"/>
	<path class="st8" d="M312.04,518.46c1.72,7.51,5.25,14.16,9.77,20.33C314.33,535.85,309.72,526.27,312.04,518.46z"/>
	<path class="st0" d="M186.32,374.27c3.08-7.74,7.44-14.75,12.63-21.23c10.32-12.92,22.85-22.6,39.36-26.25
		c6.58-1.46,13.23-1.84,19.95-1.09c1.46,0.16,2.17,0.64,1.87,2.22c-0.28,1.48-0.42,2.98-0.59,4.48c-0.13,1.23-0.72,1.59-1.97,1.42
		c-22.05-3.03-39.52,6.13-54.85,20.79C196.52,360.51,191.24,367.21,186.32,374.27z"/>
</g>
</svg>
